# xmcd
#
# Track frame offsets: 
#        150
#        12606
#        24251
#        35776
#        48778
#        62425
#        75758
#        86562
#        98250
#        110009
#        121764
#        130811
#        140567
#        152847
#        165984
#        177870
#        188606
#        198177
#        209817
#        222832
#
# Disc length: 3128 seconds
#
# Revision: 5
# Processed by: cddbd v1.5.2PL0 Copyright (c) Steve Scherf et al.
# Submitted via: ExactAudioCopyFreeDBPlugin 1.0
#
DISCID=fd0c3614
DTITLE=Various Artist - The Ultimate Country Gold Collection Disc 4
DYEAR=2000
DGENRE=Country
TTITLE0=Kenny Rogers - Reuben James
TTITLE1=Donna Fargo - Happiest Girl in the Whole USA
TTITLE2=Johnny Paycheck - Take This Job and Shove It
TTITLE3=Lynn Anderson - Rose Garden
TTITLE4=David Houston - Almost Persuaded
TTITLE5=Hoyt Axton - Della and the Dealer
TTITLE6=Johnny Bush - Whiskey River
TTITLE7=Henson Cargill - Skip a Rope
TTITLE8=Patsy Cline - Walkin' After Midnight
TTITLE9=Skeeter Davis - The End of the World
TTITLE10=Roy Drusky - Peel Me a Nanner
TTITLE11=Dave Dudley - Six Days on the Road
TTITLE12=Freddy Fender - Wasted Days and Wasted Nights
TTITLE13=Kenny Rogers - Ruby Don't Take Your Love To Town
TTITLE14=Hawkshaw Hawkins - Lonesome 7-7203
TTITLE15=Hank Locklin - Please Help Me, I'm Falling
TTITLE16=Ned Miller - From a Jack to a King
TTITLE17=Willie Nelson - Touch Me
TTITLE18=Carl Perkins - Boppin' the Blues
TTITLE19=Sandy Posey - Bring Him Safely Home to Me
EXTD=MasterSong Cat: 60000/4 Bar: 9316797600004
EXTT0=
EXTT1=
EXTT2=
EXTT3=
EXTT4=
EXTT5=
EXTT6=
EXTT7=
EXTT8=
EXTT9=
EXTT10=
EXTT11=
EXTT12=
EXTT13=
EXTT14=
EXTT15=
EXTT16=
EXTT17=
EXTT18=
EXTT19=
PLAYORDER=
